<svg xmlns="http://www.w3.org/2000/svg" version="1.1" xmlns:xlink="http://www.w3.org/1999/xlink" width="800px" height="800px" style="shape-rendering:geometricPrecision; text-rendering:geometricPrecision; image-rendering:optimizeQuality; fill-rule:evenodd; clip-rule:evenodd"><metadata><rdf:RDF xmlns:rdf="http://www.w3.org/1999/02/22-rdf-syntax-ns#" xmlns:dc="http://purl.org/dc/elements/1.1/"><rdf:Description><dc:creator>RealFaviconGenerator</dc:creator><dc:source>https://realfavicongenerator.net</dc:source></rdf:Description></rdf:RDF></metadata><g><path style="opacity:1" fill="#009c89" d="M 278.5,123.5 C 392.833,123.5 507.167,123.5 621.5,123.5C 621.5,150.167 621.5,176.833 621.5,203.5C 536.5,203.5 451.5,203.5 366.5,203.5C 366.5,229.5 366.5,255.5 366.5,281.5C 303.167,281.5 239.833,281.5 176.5,281.5C 176.5,254.833 176.5,228.167 176.5,201.5C 210.5,201.5 244.5,201.5 278.5,201.5C 278.5,175.5 278.5,149.5 278.5,123.5 Z"></path></g><g><path style="opacity:1" fill="#009c89" d="M 478.5,281.5 C 510.5,281.5 542.5,281.5 574.5,281.5C 574.5,308.167 574.5,334.833 574.5,361.5C 542.5,361.5 510.5,361.5 478.5,361.5C 478.5,334.833 478.5,308.167 478.5,281.5 Z"></path></g><g><path style="opacity:1" fill="#009c89" d="M 220.5,360.5 C 254.833,360.5 289.167,360.5 323.5,360.5C 323.5,387.5 323.5,414.5 323.5,441.5C 289.167,441.5 254.833,441.5 220.5,441.5C 220.5,414.5 220.5,387.5 220.5,360.5 Z"></path></g><g><path style="opacity:1" fill="#009c89" d="M 431.5,440.5 C 494.833,440.5 558.167,440.5 621.5,440.5C 621.5,493.167 621.5,545.833 621.5,598.5C 589.833,598.5 558.167,598.5 526.5,598.5C 526.5,624.167 526.5,649.833 526.5,675.5C 409.833,675.5 293.167,675.5 176.5,675.5C 176.5,623.167 176.5,570.833 176.5,518.5C 240.167,518.5 303.833,518.5 367.5,518.5C 367.5,544.167 367.5,569.833 367.5,595.5C 420.167,595.5 472.833,595.5 525.5,595.5C 525.5,570.5 525.5,545.5 525.5,520.5C 494.167,520.5 462.833,520.5 431.5,520.5C 431.5,493.833 431.5,467.167 431.5,440.5 Z"></path></g><style>@media (prefers-color-scheme: light) { :root { filter: none; } }
@media (prefers-color-scheme: dark) { :root { filter: none; } }
</style></svg>